<?xml version="1.0" encoding="UTF-8" standalone="no"?>
<!-- Created with Inkscape (http://www.inkscape.org/) -->

<svg
   xmlns:dc="http://purl.org/dc/elements/1.1/"
   xmlns:cc="http://creativecommons.org/ns#"
   xmlns:rdf="http://www.w3.org/1999/02/22-rdf-syntax-ns#"
   xmlns:svg="http://www.w3.org/2000/svg"
   xmlns="http://www.w3.org/2000/svg"
   xmlns:xlink="http://www.w3.org/1999/xlink"
   xmlns:sodipodi="http://sodipodi.sourceforge.net/DTD/sodipodi-0.dtd"
   xmlns:inkscape="http://www.inkscape.org/namespaces/inkscape"
   width="14"
   height="14"
   id="svg2"
   version="1.1"
   inkscape:version="0.48.5 r10040"
   sodipodi:docname="menu-option-checked-insensitive.svg"
   inkscape:export-filename="/home/steffen/.local/share/themes/Ceti-3.14/gtk-2.0/Check-Radio/menu-option-checked-insensitive.png"
   inkscape:export-xdpi="90"
   inkscape:export-ydpi="90">
  <defs
     id="defs4">
    <linearGradient
       id="linearGradient3875">
      <stop
         style="stop-color:#000000;stop-opacity:0.55"
         offset="0"
         id="stop3877" />
      <stop
         id="stop3879"
         offset="0.46153846"
         style="stop-color:#000000;stop-opacity:0.27450982;" />
      <stop
         style="stop-color:#000000;stop-opacity:0.25490198;"
         offset="0.97355771"
         id="stop3881" />
      <stop
         style="stop-color:#000000;stop-opacity:0.1882353;"
         offset="1"
         id="stop3883" />
    </linearGradient>
    <linearGradient
       inkscape:collect="always"
       xlink:href="#linearGradient3875"
       id="linearGradient3796"
       x1="8"
       y1="2"
       x2="8"
       y2="15"
       gradientUnits="userSpaceOnUse"
       gradientTransform="translate(-1,1037.3622)" />
    <linearGradient
       gradientUnits="userSpaceOnUse"
       y2="15"
       x2="8"
       y1="2"
       x1="8"
       id="linearGradient3796-6"
       xlink:href="#linearGradient3875-7"
       inkscape:collect="always" />
    <linearGradient
       id="linearGradient3875-7">
      <stop
         id="stop3877-35"
         offset="0"
         style="stop-color:#000000;stop-opacity:0.55" />
      <stop
         style="stop-color:#000000;stop-opacity:0.27450982;"
         offset="0.46153846"
         id="stop3879-8" />
      <stop
         id="stop3881-0"
         offset="0.97355771"
         style="stop-color:#000000;stop-opacity:0.25490198;" />
      <stop
         id="stop3883-2"
         offset="1"
         style="stop-color:#000000;stop-opacity:0.1882353;" />
    </linearGradient>
  </defs>
  <sodipodi:namedview
     id="base"
     pagecolor="#ffffff"
     bordercolor="#666666"
     borderopacity="1.0"
     inkscape:pageopacity="0.0"
     inkscape:pageshadow="2"
     inkscape:zoom="11.313709"
     inkscape:cx="12.779646"
     inkscape:cy="11.663779"
     inkscape:document-units="px"
     inkscape:current-layer="layer1"
     showgrid="true"
     inkscape:snap-bbox="true"
     showguides="true"
     inkscape:guide-bbox="true"
     inkscape:showpageshadow="false"
     showborder="true"
     inkscape:window-width="1006"
     inkscape:window-height="721"
     inkscape:window-x="6"
     inkscape:window-y="23"
     inkscape:window-maximized="0">
    <inkscape:grid
       type="xygrid"
       id="grid2985"
       empspacing="5"
       visible="true"
       enabled="true"
       snapvisiblegridlinesonly="true" />
  </sodipodi:namedview>
  <metadata
     id="metadata7">
    <rdf:RDF>
      <cc:Work
         rdf:about="">
        <dc:format>image/svg+xml</dc:format>
        <dc:type
           rdf:resource="http://purl.org/dc/dcmitype/StillImage" />
        <dc:title></dc:title>
      </cc:Work>
    </rdf:RDF>
  </metadata>
  <g
     inkscape:label="Ebene 1"
     inkscape:groupmode="layer"
     id="layer1"
     transform="translate(0,-1038.3622)">
    <g
       transform="translate(-136,465.99997)"
       id="radio-checked-insensitive"
       inkscape:label="#g6832"
       inkscape:export-filename="/home/steffen/.local/share/themes/Ceti-3.14/gtk-2.0/Check-Radio/option-checked-insensitive.png"
       inkscape:export-xdpi="90"
       inkscape:export-ydpi="90">
      <g
         inkscape:label="Ebene 1"
         id="9"
         transform="translate(135,-464.99997)">
        <path
           inkscape:connector-curvature="0"
           style="fill:url(#linearGradient3796-6);fill-opacity:1;stroke:none"
           d="M 8,1 C 4.1340068,1 1,4.1340068 1,8 c 0,3.865993 3.1340068,7 7,7 3.865993,0 7,-3.134007 7,-7 C 15,4.1340068 11.865993,1 8,1 z m 0,1 c 3.313708,0 6,2.6862915 6,6 0,3.313708 -2.686292,6 -6,6 C 4.6862915,14 2,11.313708 2,8 2,4.6862915 4.6862915,2 8,2 z"
           transform="translate(0,1036.3622)"
           id="path3017-77" />
        <path
           sodipodi:type="arc"
           style="fill:#f1f1f2;fill-opacity:1;stroke:none"
           id="path3854-2"
           sodipodi:cx="8"
           sodipodi:cy="8"
           sodipodi:rx="6"
           sodipodi:ry="6"
           d="m 14,8 c 0,3.313708 -2.686292,6 -6,6 C 4.6862915,14 2,11.313708 2,8 2,4.6862915 4.6862915,2 8,2 c 3.313708,0 6,2.6862915 6,6 z"
           transform="translate(0,1036.3622)" />
        <path
           transform="translate(0,1036.3622)"
           sodipodi:type="arc"
           style="fill:#aaaaac;fill-opacity:1;stroke:none"
           id="path4092-19"
           sodipodi:cx="8"
           sodipodi:cy="8"
           sodipodi:rx="2"
           sodipodi:ry="2"
           d="M 10,8 C 10,9.1045695 9.1045695,10 8,10 6.8954305,10 6,9.1045695 6,8 6,6.8954305 6.8954305,6 8,6 c 1.1045695,0 2,0.8954305 2,2 z" />
        <path
           style="fill:#8e8f93;fill-opacity:1;stroke:none"
           d="m 8,1042.3622 c -1.1045695,0 -2,0.8954 -2,2 0,0.1726 0.021396,0.3402 0.0625,0.5 0.2219627,-0.8627 1.00552,-1.5 1.9375,-1.5 0.931981,0 1.715537,0.6373 1.9375,1.5 0.0411,-0.1598 0.0625,-0.3274 0.0625,-0.5 0,-1.1046 -0.89543,-2 -2,-2 z"
           id="path4092-5-0"
           inkscape:connector-curvature="0" />
      </g>
    </g>
  </g>
</svg>
