<?xml version="1.0" encoding="UTF-8" standalone="no"?>
<!-- Created with Inkscape (http://www.inkscape.org/) -->

<svg
   xmlns:dc="http://purl.org/dc/elements/1.1/"
   xmlns:cc="http://creativecommons.org/ns#"
   xmlns:rdf="http://www.w3.org/1999/02/22-rdf-syntax-ns#"
   xmlns:svg="http://www.w3.org/2000/svg"
   xmlns="http://www.w3.org/2000/svg"
   xmlns:xlink="http://www.w3.org/1999/xlink"
   xmlns:sodipodi="http://sodipodi.sourceforge.net/DTD/sodipodi-0.dtd"
   xmlns:inkscape="http://www.inkscape.org/namespaces/inkscape"
   width="16"
   height="16"
   id="svg4306"
   version="1.1"
   inkscape:version="0.48.5 r10040"
   sodipodi:docname="close.svg">
  <defs
     id="defs4308">
    <linearGradient
       id="linearGradient4892">
      <stop
         style="stop-color:#2f3a42;stop-opacity:1;"
         offset="0"
         id="stop4894" />
      <stop
         style="stop-color:#1d242a;stop-opacity:1;"
         offset="1"
         id="stop4896" />
    </linearGradient>
    <linearGradient
       id="linearGradient4882">
      <stop
         style="stop-color:#728495;stop-opacity:1;"
         offset="0"
         id="stop4884" />
      <stop
         style="stop-color:#617c95;stop-opacity:0;"
         offset="1"
         id="stop4886" />
    </linearGradient>
    <linearGradient
       inkscape:collect="always"
       xlink:href="#linearGradient4882"
       id="linearGradient4888"
       x1="8"
       y1="16"
       x2="8"
       y2="8"
       gradientUnits="userSpaceOnUse" />
    <radialGradient
       inkscape:collect="always"
       xlink:href="#linearGradient4892"
       id="radialGradient4900"
       cx="8"
       cy="8"
       fx="8"
       fy="8"
       r="6"
       gradientUnits="userSpaceOnUse" />
  </defs>
  <sodipodi:namedview
     id="base"
     pagecolor="#ffffff"
     bordercolor="#666666"
     borderopacity="1.0"
     inkscape:pageopacity="0.0"
     inkscape:pageshadow="2"
     inkscape:zoom="15.839192"
     inkscape:cx="1.1031783"
     inkscape:cy="3.209887"
     inkscape:document-units="px"
     inkscape:current-layer="layer1"
     showgrid="true"
     showguides="true"
     inkscape:guide-bbox="true"
     inkscape:window-width="1208"
     inkscape:window-height="622"
     inkscape:window-x="331"
     inkscape:window-y="301"
     inkscape:window-maximized="0">
    <inkscape:grid
       type="xygrid"
       id="grid4314"
       empspacing="5"
       visible="true"
       enabled="true"
       snapvisiblegridlinesonly="true" />
    <sodipodi:guide
       orientation="1,0"
       position="8,8"
       id="guide4316" />
    <sodipodi:guide
       orientation="0,1"
       position="8,8"
       id="guide4318" />
  </sodipodi:namedview>
  <metadata
     id="metadata4311">
    <rdf:RDF>
      <cc:Work
         rdf:about="">
        <dc:format>image/svg+xml</dc:format>
        <dc:type
           rdf:resource="http://purl.org/dc/dcmitype/StillImage" />
        <dc:title />
      </cc:Work>
    </rdf:RDF>
  </metadata>
  <g
     inkscape:label="Ebene 1"
     inkscape:groupmode="layer"
     id="layer1"
     transform="translate(0,-1036.3622)">
    <path
       sodipodi:type="arc"
       style="fill:url(#linearGradient4888);fill-opacity:1;stroke:#000000;stroke-width:0;stroke-linejoin:miter;stroke-miterlimit:4;stroke-opacity:1;stroke-dasharray:none;opacity:0.45"
       id="path4878"
       sodipodi:cx="8"
       sodipodi:cy="8"
       sodipodi:rx="8"
       sodipodi:ry="8"
       d="M 16,8 A 8,8 0 1 1 0,8 8,8 0 1 1 16,8 z"
       transform="translate(0,1036.3622)" />
    <path
       sodipodi:type="arc"
       style="fill:#06080a;fill-opacity:1;stroke:#000000;stroke-width:0;stroke-linejoin:miter;stroke-miterlimit:4;stroke-opacity:1;stroke-dasharray:none"
       id="path4880"
       sodipodi:cx="8"
       sodipodi:cy="8"
       sodipodi:rx="7"
       sodipodi:ry="7"
       d="M 15,8 A 7,7 0 1 1 1,8 7,7 0 1 1 15,8 z"
       transform="translate(0,1036.3622)" />
    <path
       sodipodi:type="arc"
       style="fill:url(#radialGradient4900);fill-opacity:1;stroke:#000000;stroke-width:0;stroke-linejoin:miter;stroke-miterlimit:4;stroke-opacity:1;stroke-dasharray:none"
       id="path4890"
       sodipodi:cx="8"
       sodipodi:cy="8"
       sodipodi:rx="6"
       sodipodi:ry="6"
       d="M 14,8 A 6,6 0 1 1 2,8 6,6 0 1 1 14,8 z"
       transform="translate(0,1036.3622)" />
    <g
       transform="matrix(0.74999997,0,0,0.75000005,2.0000002,1038.3622)"
       id="layer1-9"
       style="fill:#c9d7de;fill-opacity:1">
      <path
         style="color:#bebebe;fill:#c9d7de;fill-opacity:1;fill-rule:nonzero;stroke:none;stroke-width:1;marker:none;visibility:visible;display:inline;overflow:visible;enable-background:accumulate"
         id="path3039"
         inkscape:connector-curvature="0"
         d="m 4.8814786,4.0082925 c -0.2252363,0 -0.4518548,0.077632 -0.6237043,0.2494817 -0.3436992,0.343699 -0.3436992,0.9037095 0,1.2474086 L 6.7525914,7.9999999 4.2577743,10.494817 c -0.3436989,0.3437 -0.3436989,0.903709 0,1.247409 0.3437,0.343698 0.9037086,0.343698 1.2474085,0 L 8,9.2474085 10.494817,11.742226 c 0.3437,0.343698 0.903709,0.343698 1.247409,0 0.343699,-0.3437 0.343699,-0.903709 0,-1.247409 L 9.2474085,7.9999999 11.742226,5.5051828 c 0.343699,-0.3436991 0.343699,-0.9037096 0,-1.2474086 -0.343699,-0.3436989 -0.90371,-0.3436989 -1.247409,0 L 8,6.7525914 5.5051828,4.2577742 C 5.3333333,4.0859246 5.1067148,4.0082925 4.8814786,4.0082925 z" />
    </g>
  </g>
</svg>
