<?xml version="1.0" encoding="UTF-8" standalone="no"?>
<!-- Created with Inkscape (http://www.inkscape.org/) -->

<svg
   xmlns:dc="http://purl.org/dc/elements/1.1/"
   xmlns:cc="http://creativecommons.org/ns#"
   xmlns:rdf="http://www.w3.org/1999/02/22-rdf-syntax-ns#"
   xmlns:svg="http://www.w3.org/2000/svg"
   xmlns="http://www.w3.org/2000/svg"
   xmlns:xlink="http://www.w3.org/1999/xlink"
   xmlns:sodipodi="http://sodipodi.sourceforge.net/DTD/sodipodi-0.dtd"
   xmlns:inkscape="http://www.inkscape.org/namespaces/inkscape"
   width="31"
   height="34"
   id="svg7355"
   version="1.1"
   inkscape:version="0.48.5 r10040"
   sodipodi:docname="app-control-left-hover.svg"
   inkscape:export-filename="/home/steffen/.local/share/themes/Vertex_Shell/gnome-shell/running-indicator.png"
   inkscape:export-xdpi="90"
   inkscape:export-ydpi="90">
  <metadata
     id="metadata4175">
    <rdf:RDF>
      <cc:Work
         rdf:about="">
        <dc:format>image/svg+xml</dc:format>
        <dc:type
           rdf:resource="http://purl.org/dc/dcmitype/StillImage" />
        <dc:title></dc:title>
      </cc:Work>
    </rdf:RDF>
  </metadata>
  <sodipodi:namedview
     pagecolor="#000000"
     bordercolor="#666666"
     borderopacity="1"
     objecttolerance="10"
     gridtolerance="10"
     guidetolerance="10"
     inkscape:pageopacity="0"
     inkscape:pageshadow="2"
     inkscape:window-width="1920"
     inkscape:window-height="1035"
     id="namedview4173"
     showgrid="true"
     inkscape:zoom="11.313708"
     inkscape:cx="4.9638028"
     inkscape:cy="19.721803"
     inkscape:window-x="0"
     inkscape:window-y="23"
     inkscape:window-maximized="1"
     inkscape:current-layer="layer1"
     inkscape:snap-bbox="true">
    <inkscape:grid
       type="xygrid"
       id="grid3768"
       empspacing="5"
       visible="true"
       enabled="true"
       snapvisiblegridlinesonly="true" />
  </sodipodi:namedview>
  <defs
     id="defs7357">
    <linearGradient
       id="linearGradient3761">
      <stop
         style="stop-color:#1a1f24;stop-opacity:1;"
         offset="0"
         id="stop3763" />
      <stop
         style="stop-color:#1a1f24;stop-opacity:0;"
         offset="1"
         id="stop3765" />
    </linearGradient>
    <linearGradient
       id="linearGradient3783">
      <stop
         style="stop-color:#ffffff;stop-opacity:0.74345547;"
         offset="0"
         id="stop3785" />
      <stop
         style="stop-color:#ffffff;stop-opacity:0.19607843;"
         offset="1"
         id="stop3787" />
    </linearGradient>
    <linearGradient
       inkscape:collect="always"
       xlink:href="#linearGradient3783"
       id="linearGradient3789"
       x1="276.09146"
       y1="242.11809"
       x2="276.09146"
       y2="240.26776"
       gradientUnits="userSpaceOnUse"
       gradientTransform="translate(-1.8503297,-1.3277368e-5)" />
    <linearGradient
       inkscape:collect="always"
       xlink:href="#linearGradient3772-0"
       id="linearGradient3767"
       x1="15.000002"
       y1="32"
       x2="15.000002"
       y2="2"
       gradientUnits="userSpaceOnUse"
       gradientTransform="matrix(0.6167785,0,0,0.6167785,266.223,-242.11809)" />
    <linearGradient
       inkscape:collect="always"
       xlink:href="#linearGradient3772"
       id="linearGradient3778"
       x1="8"
       y1="1"
       x2="8"
       y2="14"
       gradientUnits="userSpaceOnUse"
       gradientTransform="translate(0.99999997,-1)" />
    <linearGradient
       id="linearGradient3772">
      <stop
         style="stop-color:#59626e;stop-opacity:1;"
         offset="0"
         id="stop3774" />
      <stop
         style="stop-color:#3d444e;stop-opacity:1;"
         offset="1"
         id="stop3776" />
    </linearGradient>
    <linearGradient
       inkscape:collect="always"
       xlink:href="#linearGradient3772-1"
       id="linearGradient3767-7"
       x1="15.000002"
       y1="32"
       x2="15.000002"
       y2="2"
       gradientUnits="userSpaceOnUse"
       gradientTransform="matrix(0.6167785,0,0,0.6167785,266.223,-242.11809)" />
    <linearGradient
       id="linearGradient3772-1">
      <stop
         style="stop-color:#59626e;stop-opacity:1;"
         offset="0"
         id="stop3774-0" />
      <stop
         style="stop-color:#3d444e;stop-opacity:1;"
         offset="1"
         id="stop3776-4" />
    </linearGradient>
    <linearGradient
       inkscape:collect="always"
       xlink:href="#linearGradient3772-6"
       id="linearGradient3767-8"
       x1="15.000002"
       y1="32"
       x2="15.000002"
       y2="2"
       gradientUnits="userSpaceOnUse"
       gradientTransform="matrix(0.6167785,0,0,0.6167785,266.223,-242.11809)" />
    <linearGradient
       id="linearGradient3772-6">
      <stop
         style="stop-color:#59626e;stop-opacity:1;"
         offset="0"
         id="stop3774-5" />
      <stop
         style="stop-color:#3d444e;stop-opacity:1;"
         offset="1"
         id="stop3776-6" />
    </linearGradient>
    <linearGradient
       inkscape:collect="always"
       xlink:href="#linearGradient3772-0"
       id="linearGradient3778-5"
       x1="8"
       y1="1"
       x2="8"
       y2="14"
       gradientUnits="userSpaceOnUse"
       gradientTransform="translate(0.99999997,-1)" />
    <linearGradient
       id="linearGradient3772-0">
      <stop
         style="stop-color:#646e7c;stop-opacity:1;"
         offset="0"
         id="stop3774-6" />
      <stop
         style="stop-color:#444c57;stop-opacity:1;"
         offset="1"
         id="stop3776-5" />
    </linearGradient>
  </defs>
  <g
     id="layer1"
     transform="matrix(1.6213276,0,0,1.6213276,-431.6347,-358.55274)">
    <path
       inkscape:connector-curvature="0"
       id="rect3999"
       d="m 266.223,221.7644 c -0.68339,0 -1.23356,0.55017 -1.23356,1.23356 l 0,17.26979 c 0,0.68339 0.55017,1.23356 1.23356,1.23356 l 17.26979,0 c 0.6834,0 1.23356,-0.55017 1.23356,-1.23356 l 0,-17.26979 c 0,-0.68339 -0.55016,-1.23356 -1.23356,-1.23356 l -17.26979,0 z m 0,0.61678 17.26979,0 c 0.3417,0 0.61678,0.27508 0.61678,0.61678 l 0,17.26979 c 0,0.3417 -0.27508,0.61678 -0.61678,0.61678 l -17.26979,0 c -0.3417,0 -0.61678,-0.27508 -0.61678,-0.61678 l 0,-17.26979 c 0,-0.3417 0.27508,-0.61678 0.61678,-0.61678 z"
       style="opacity:0.85;fill:#000000;fill-opacity:1;stroke:#f70505;stroke-width:0;stroke-linejoin:round;stroke-miterlimit:4;stroke-opacity:1;stroke-dasharray:none;stroke-dashoffset:0" />
    <path
       style="opacity:0.15;fill:url(#linearGradient3789);fill-opacity:1;stroke:#f70505;stroke-width:0;stroke-linejoin:round;stroke-miterlimit:4;stroke-opacity:1;stroke-dasharray:none;stroke-dashoffset:0"
       d="m 266.22301,221.14762 c -1.02509,0 -1.85034,0.82525 -1.85034,1.85034 l 0,17.26979 c 0,1.02509 0.82525,1.85034 1.85034,1.85034 l 17.26979,0 c 1.02509,0 1.85034,-0.82525 1.85034,-1.85034 l 0,-17.26979 c 0,-1.02509 -0.82525,-1.85034 -1.85034,-1.85034 l -17.26979,0 z m -0.0964,0.61678 17.46254,0 c 0.63225,0 1.13718,0.50493 1.13718,1.13718 l 0,17.46255 c 0,0.63225 -0.50493,1.13718 -1.13718,1.13718 l -17.46254,0 c -0.63226,0 -1.13719,-0.50493 -1.13719,-1.13718 l 0,-17.46255 c 0,-0.63225 0.50493,-1.13718 1.13719,-1.13718 z"
       id="rect3778"
       inkscape:connector-curvature="0" />
    <rect
       style="opacity:0.06000001;fill:#ffffff;fill-opacity:1;stroke:#7c7c7c;stroke-width:0;stroke-linejoin:round;stroke-miterlimit:4;stroke-opacity:1;stroke-dasharray:none;stroke-dashoffset:0"
       id="rect3781"
       width="0.61677849"
       height="18.503355"
       x="266.22299"
       y="222.38118"
       ry="5.1964048e-07" />
    <rect
       style="fill:url(#linearGradient3767);fill-opacity:1;stroke:#000000;stroke-width:0;stroke-linecap:butt;stroke-linejoin:miter;stroke-miterlimit:4;stroke-opacity:1;stroke-dasharray:none;stroke-dashoffset:0"
       id="rect3759"
       width="18.503355"
       height="18.503355"
       x="265.60623"
       y="-240.88454"
       transform="scale(1,-1)"
       ry="0.61677849"
       rx="0.61677712" />
    <path
       style="opacity:0.2;fill:#ffffff;fill-opacity:1;stroke:#000000;stroke-width:0;stroke-linecap:butt;stroke-linejoin:miter;stroke-miterlimit:4;stroke-opacity:1;stroke-dasharray:none;stroke-dashoffset:0"
       d="m 266.223,222.38118 c -0.34169,0 -0.61678,0.27508 -0.61678,0.61678 l 0,0.61677 c 0,-0.34169 0.27509,-0.61677 0.61678,-0.61677 l 17.2698,0 c 0.34169,0 0.61678,0.27508 0.61678,0.61677 l 0,-0.61677 c 0,-0.3417 -0.27509,-0.61678 -0.61678,-0.61678 l -17.2698,0 z"
       id="rect3759-4"
       inkscape:connector-curvature="0" />
  </g>
</svg>
