/* XPM */
static char * close_active_xpm[] = {
"24 24 75 1",
" 	c None",
".	c #1C1D1B",
"+	c #1C1C1B",
"@	c #1B1C1B",
"#	c #1B1C1A",
"$	c #1C1C1A",
"%	c #4F5863",
"&	c #393F47",
"*	c #353A41",
"=	c #1E2227",
"-	c #0F1115",
";	c #080A0C",
">	c #282D32",
",	c #090B0E",
"'	c #101518",
")	c #191F24",
"!	c #1D242A",
"~	c #0F1418",
"{	c #080B0D",
"]	c #191F25",
"^	c #20272D",
"/	c #21292F",
"(	c #212930",
"_	c #192025",
":	c #20282E",
"<	c #222A31",
"[	c #242C33",
"}	c #242D34",
"|	c #090C0E",
"1	c #343A42",
"2	c #ACB9C0",
"3	c #6C797F",
"4	c #273138",
"5	c #1F2227",
"6	c #0F1215",
"7	c #C8D6DD",
"8	c #707B84",
"9	c #181F24",
"0	c #343A41",
"a	c #353C43",
"b	c #080A0B",
"c	c #1C242B",
"d	c #080A0D",
"e	c #373E46",
"f	c #101215",
"g	c #373F47",
"h	c #1F242A",
"i	c #1F252A",
"j	c #363C43",
"k	c #39424A",
"l	c #090B0D",
"m	c #0A0C0F",
"n	c #38434C",
"o	c #3C444D",
"p	c #2E353C",
"q	c #2E363E",
"r	c #3B434D",
"s	c #414A54",
"t	c #31383F",
"u	c #0A0C10",
"v	c #181F23",
"w	c #313840",
"x	c #414954",
"y	c #333A41",
"z	c #404953",
"A	c #434E59",
"B	c #262E33",
"C	c #13161B",
"D	c #272E34",
"E	c #404852",
"F	c #383E47",
"G	c #424B54",
"H	c #49535E",
"I	c #4D5762",
"J	c #383E46",
".+@@#+@@@+.$#.+##@##.@++",
"%%%%%%%%%%%%%%%%%%%%%%%%",
"&&&&&&&&&&&&&&&&&&&&&&&&",
"&&&&&&&&&&&&&&&&&&&&&&&&",
"&&&&&&&&&&&&&&&&&&&&&&&&",
"&&&&&&&&*=-;;-=*&&&&&&&&",
"&&&&&&&>,')!!)~,>&&&&&&&",
"&&&&&&>{]^/((/^_{>&&&&&&",
"&&&&&*,]:<[}}[<:_|1&&&&&",
"&&&&&='^<234432<^~5&&&&&",
"&&&&&6)/[378873[/9-&&&&&",
"&&&&&;!(}487784}(!;&&&&&",
"0000ab!(}487784}(cda0000",
"0000e6)/[378873[/9fe0000",
"0000gh~^<234432<^~ig0000",
"0000jkl_:<[}}[<:_mnj0000",
"00000op{_^/((/^_{qr00000",
"000000stu~9!!v~uwxy00000",
"0000000zABC,,CDAE0000000",
"00000000FGHIIHGJ00000000",
"000000000000000000000000",
"000000000000000000000000",
"000000000000000000000000",
"000000000000000000000000"};
