/* XPM */
static char * close_prelight_xpm[] = {
"24 24 78 1",
" 	c None",
".	c #1C1D1B",
"+	c #1C1C1B",
"@	c #1B1C1B",
"#	c #1B1C1A",
"$	c #1C1C1A",
"%	c #4F5863",
"&	c #393F47",
"*	c #353A41",
"=	c #1E2227",
"-	c #0F1115",
";	c #080A0C",
">	c #282D32",
",	c #0B0B0E",
"'	c #2F1619",
")	c #491C20",
"!	c #532024",
"~	c #2D1519",
"{	c #100C0E",
"]	c #4B1C20",
"^	c #502126",
"/	c #482328",
"(	c #452429",
"_	c #4B1D21",
":	c #4C2227",
"<	c #422429",
"[	c #3C262B",
"}	c #39272D",
"|	c #0C0C0E",
"1	c #343A42",
"2	c #DC4E4F",
"3	c #8B3C40",
"4	c #302C32",
"5	c #2D1418",
"6	c #1F2227",
"7	c #0F1215",
"8	c #FE5656",
"9	c #894145",
"0	c #481C20",
"a	c #522024",
"b	c #343A41",
"c	c #353C43",
"d	c #080A0B",
"e	c #522025",
"f	c #080A0D",
"g	c #373E46",
"h	c #101215",
"i	c #373F47",
"j	c #1F242A",
"k	c #1F252A",
"l	c #363C43",
"m	c #39424A",
"n	c #0B0B0D",
"o	c #0B0C0F",
"p	c #38434C",
"q	c #3C444D",
"r	c #2E353C",
"s	c #2E363E",
"t	c #3B434D",
"u	c #414A54",
"v	c #31383F",
"w	c #0C0C10",
"x	c #481C1F",
"y	c #313840",
"z	c #414954",
"A	c #333A41",
"B	c #404953",
"C	c #434E59",
"D	c #262E33",
"E	c #13161B",
"F	c #090B0E",
"G	c #272E34",
"H	c #404852",
"I	c #383E47",
"J	c #424B54",
"K	c #49535E",
"L	c #4D5762",
"M	c #383E46",
".+@@#+@@@+.$#.+##@##.@++",
"%%%%%%%%%%%%%%%%%%%%%%%%",
"&&&&&&&&&&&&&&&&&&&&&&&&",
"&&&&&&&&&&&&&&&&&&&&&&&&",
"&&&&&&&&&&&&&&&&&&&&&&&&",
"&&&&&&&&*=-;;-=*&&&&&&&&",
"&&&&&&&>,')!!)~,>&&&&&&&",
"&&&&&&>{]^/((/^_{>&&&&&&",
"&&&&&*,]:<[}}[<:_|1&&&&&",
"&&&&&='^<234432<^56&&&&&",
"&&&&&7)/[389983[/0-&&&&&",
"&&&&&;a(}498894}(a;&&&&&",
"bbbbcda(}498894}(efcbbbb",
"bbbbg7)/[389983[/0hgbbbb",
"bbbbij~^<234432<^5kibbbb",
"bbbblmn_:<[}}[<:_oplbbbb",
"bbbbbqr{_^/((/^_{stbbbbb",
"bbbbbbuvw50aax5wyzAbbbbb",
"bbbbbbbBCDEFFEGCHbbbbbbb",
"bbbbbbbbIJKLLKJMbbbbbbbb",
"bbbbbbbbbbbbbbbbbbbbbbbb",
"bbbbbbbbbbbbbbbbbbbbbbbb",
"bbbbbbbbbbbbbbbbbbbbbbbb",
"bbbbbbbbbbbbbbbbbbbbbbbb"};
