/* XPM */
static char * close_pressed_xpm[] = {
"24 24 77 1",
" 	c None",
".	c #1C1D1B",
"+	c #1C1C1B",
"@	c #1B1C1B",
"#	c #1B1C1A",
"$	c #1C1C1A",
"%	c #4F5863",
"&	c #393F47",
"*	c #353A41",
"=	c #1E2227",
"-	c #0F1115",
";	c #080A0C",
">	c #282D32",
",	c #090B0E",
"'	c #0C1113",
")	c #11161A",
"!	c #13191D",
"~	c #070A0C",
"{	c #12161A",
"]	c #14191D",
"^	c #13181C",
"/	c #12171A",
"(	c #12181B",
"_	c #111619",
":	c #090C0E",
"<	c #343A42",
"[	c #652C2E",
"}	c #261B1E",
"|	c #101417",
"1	c #0C1013",
"2	c #1F2227",
"3	c #0F1215",
"4	c #D24A4B",
"5	c #D94C4C",
"6	c #25181B",
"7	c #D1494A",
"8	c #261A1D",
"9	c #343A41",
"0	c #353C43",
"a	c #080A0B",
"b	c #3B1F21",
"c	c #FE5656",
"d	c #080A0D",
"e	c #373E46",
"f	c #101215",
"g	c #373F47",
"h	c #1F242A",
"i	c #DA4C4D",
"j	c #1F252A",
"k	c #363C43",
"l	c #39424A",
"m	c #090B0D",
"n	c #662E2F",
"o	c #271D20",
"p	c #090C0F",
"q	c #38434C",
"r	c #3C444D",
"s	c #2E353C",
"t	c #2E363E",
"u	c #3B434D",
"v	c #414A54",
"w	c #31383F",
"x	c #090C10",
"y	c #313840",
"z	c #414954",
"A	c #333A41",
"B	c #404953",
"C	c #434E59",
"D	c #262E33",
"E	c #13161B",
"F	c #272E34",
"G	c #404852",
"H	c #383E47",
"I	c #424B54",
"J	c #49535E",
"K	c #4D5762",
"L	c #383E46",
".+@@#+@@@+.$#.+##@##.@++",
"%%%%%%%%%%%%%%%%%%%%%%%%",
"&&&&&&&&&&&&&&&&&&&&&&&&",
"&&&&&&&&&&&&&&&&&&&&&&&&",
"&&&&&&&&&&&&&&&&&&&&&&&&",
"&&&&&&&&*=-;;-=*&&&&&&&&",
"&&&&&&&>,')!!)',>&&&&&&&",
"&&&&&&>~{]^^^^]/~>&&&&&&",
"&&&&&*,{!(/__/(!/:<&&&&&",
"&&&&&=']([}||}[(]12&&&&&",
"&&&&&3{^/456657/^_-&&&&&",
"&&&&&;!^_855558_^!;&&&&&",
"99990a!^_|bccb|_^!d09999",
"9999e3{^/}5555}/^_fe9999",
"9999gh'](4i88i7(]1jg9999",
"9999klm/!no__on!/pqk9999",
"99999rs~/]^^^^]/~tu99999",
"999999vwx1_!!_1xyzA99999",
"9999999BCDE,,EFCG9999999",
"99999999HIJKKJIL99999999",
"999999999999999999999999",
"999999999999999999999999",
"999999999999999999999999",
"999999999999999999999999"};
