/* XPM */
static char * close_inactive_xpm[] = {
"24 24 76 1",
" 	c None",
".	c #1C1D1B",
"+	c #1C1C1B",
"@	c #1B1C1B",
"#	c #1B1C1A",
"$	c #1C1C1A",
"%	c #4F5863",
"&	c #393F47",
"*	c #353A41",
"=	c #1E2227",
"-	c #0F1115",
";	c #080A0C",
">	c #282D32",
",	c #090B0E",
"'	c #101518",
")	c #191F24",
"!	c #1D242A",
"~	c #0F1418",
"{	c #080B0D",
"]	c #191F25",
"^	c #20272D",
"/	c #21292F",
"(	c #212930",
"_	c #192025",
":	c #20282E",
"<	c #222A31",
"[	c #242C33",
"}	c #242D34",
"|	c #090C0E",
"1	c #343A42",
"2	c #4C575E",
"3	c #3B454C",
"4	c #273138",
"5	c #1F2227",
"6	c #0F1215",
"7	c #59636B",
"8	c #3F4951",
"9	c #181F24",
"0	c #5C676E",
"a	c #343A41",
"b	c #353C43",
"c	c #080A0B",
"d	c #1C242B",
"e	c #080A0D",
"f	c #373E46",
"g	c #101215",
"h	c #373F47",
"i	c #1F242A",
"j	c #1F252A",
"k	c #363C43",
"l	c #39424A",
"m	c #090B0D",
"n	c #0A0C0F",
"o	c #38434C",
"p	c #3C444D",
"q	c #2E353C",
"r	c #2E363E",
"s	c #3B434D",
"t	c #414A54",
"u	c #31383F",
"v	c #0A0C10",
"w	c #181F23",
"x	c #313840",
"y	c #414954",
"z	c #333A41",
"A	c #404953",
"B	c #434E59",
"C	c #262E33",
"D	c #13161B",
"E	c #272E34",
"F	c #404852",
"G	c #383E47",
"H	c #424B54",
"I	c #49535E",
"J	c #4D5762",
"K	c #383E46",
".+@@#+@@@+.$#.+##@##.@++",
"%%%%%%%%%%%%%%%%%%%%%%%%",
"&&&&&&&&&&&&&&&&&&&&&&&&",
"&&&&&&&&&&&&&&&&&&&&&&&&",
"&&&&&&&&&&&&&&&&&&&&&&&&",
"&&&&&&&&*=-;;-=*&&&&&&&&",
"&&&&&&&>,')!!)~,>&&&&&&&",
"&&&&&&>{]^/((/^_{>&&&&&&",
"&&&&&*,]:<[}}[<:_|1&&&&&",
"&&&&&='^<234432<^~5&&&&&",
"&&&&&6)/[378873[/9-&&&&&",
"&&&&&;!(}480084}(!;&&&&&",
"aaaabc!(}480084}(debaaaa",
"aaaaf6)/[378873[/9gfaaaa",
"aaaahi~^<234432<^~jhaaaa",
"aaaaklm_:<[}}[<:_nokaaaa",
"aaaaapq{_^/((/^_{rsaaaaa",
"aaaaaatuv~9!!w~vxyzaaaaa",
"aaaaaaaABCD,,DEBFaaaaaaa",
"aaaaaaaaGHIJJIHKaaaaaaaa",
"aaaaaaaaaaaaaaaaaaaaaaaa",
"aaaaaaaaaaaaaaaaaaaaaaaa",
"aaaaaaaaaaaaaaaaaaaaaaaa",
"aaaaaaaaaaaaaaaaaaaaaaaa"};
