/* XPM */
static char * hide_inactive_xpm[] = {
"24 24 81 1",
" 	c None",
".	c #1C1D1B",
"+	c #1C1C1B",
"@	c #1B1C1B",
"#	c #1B1C1A",
"$	c #1C1C1A",
"%	c #4F5863",
"&	c #393F47",
"*	c #353A41",
"=	c #1E2227",
"-	c #0F1115",
";	c #080A0C",
">	c #282D32",
",	c #090B0E",
"'	c #101518",
")	c #191F24",
"!	c #1D242A",
"~	c #0F1418",
"{	c #080B0D",
"]	c #191F25",
"^	c #20272D",
"/	c #21292F",
"(	c #212930",
"_	c #192025",
":	c #20282E",
"<	c #222A31",
"[	c #242C33",
"}	c #242D34",
"|	c #090C0E",
"1	c #343A42",
"2	c #262F36",
"3	c #273138",
"4	c #1F2227",
"5	c #0F1215",
"6	c #4B555D",
"7	c #3A454D",
"8	c #2A343C",
"9	c #181F24",
"0	c #3F4950",
"a	c #59646C",
"b	c #3F4951",
"c	c #343A41",
"d	c #353C43",
"e	c #080A0B",
"f	c #424C54",
"g	c #5B666E",
"h	c #1C242B",
"i	c #080A0D",
"j	c #373E46",
"k	c #29323A",
"l	c #101215",
"m	c #373F47",
"n	c #1F242A",
"o	c #1F252A",
"p	c #363C43",
"q	c #39424A",
"r	c #090B0D",
"s	c #0A0C0F",
"t	c #38434C",
"u	c #3C444D",
"v	c #2E353C",
"w	c #2E363E",
"x	c #3B434D",
"y	c #414A54",
"z	c #31383F",
"A	c #0A0C10",
"B	c #181F23",
"C	c #313840",
"D	c #414954",
"E	c #333A41",
"F	c #404953",
"G	c #434E59",
"H	c #262E33",
"I	c #13161B",
"J	c #272E34",
"K	c #404852",
"L	c #383E47",
"M	c #424B54",
"N	c #49535E",
"O	c #4D5762",
"P	c #383E46",
".+@@#+@@@+.$#.+##@##.@++",
"%%%%%%%%%%%%%%%%%%%%%%%%",
"&&&&&&&&&&&&&&&&&&&&&&&&",
"&&&&&&&&&&&&&&&&&&&&&&&&",
"&&&&&&&&&&&&&&&&&&&&&&&&",
"&&&&&&&&*=-;;-=*&&&&&&&&",
"&&&&&&&>,')!!)~,>&&&&&&&",
"&&&&&&>{]^/((/^_{>&&&&&&",
"&&&&&*,]:<[}}[<:_|1&&&&&",
"&&&&&='^<}2332}<^~4&&&&&",
"&&&&&5)/[678876[/9-&&&&&",
"&&&&&;!(}0abba0}(!;&&&&&",
"ccccde!(}3fggf3}(hidcccc",
"ccccj5)/[2kffk2[/9ljcccc",
"ccccmn~^<}2332}<^~omcccc",
"ccccpqr_:<[}}[<:_stpcccc",
"cccccuv{_^/((/^_{wxccccc",
"ccccccyzA~9!!B~ACDEccccc",
"cccccccFGHI,,IJGKccccccc",
"ccccccccLMNOONMPcccccccc",
"cccccccccccccccccccccccc",
"cccccccccccccccccccccccc",
"cccccccccccccccccccccccc",
"cccccccccccccccccccccccc"};
