/* XPM */
static char * hide_active_xpm[] = {
"24 24 80 1",
" 	c None",
".	c #1C1D1B",
"+	c #1C1C1B",
"@	c #1B1C1B",
"#	c #1B1C1A",
"$	c #1C1C1A",
"%	c #4F5863",
"&	c #393F47",
"*	c #353A41",
"=	c #1E2227",
"-	c #0F1115",
";	c #080A0C",
">	c #282D32",
",	c #090B0E",
"'	c #101518",
")	c #191F24",
"!	c #1D242A",
"~	c #0F1418",
"{	c #080B0D",
"]	c #191F25",
"^	c #20272D",
"/	c #21292F",
"(	c #212930",
"_	c #192025",
":	c #20282E",
"<	c #222A31",
"[	c #242C33",
"}	c #242D34",
"|	c #090C0E",
"1	c #343A42",
"2	c #262F36",
"3	c #273138",
"4	c #1F2227",
"5	c #0F1215",
"6	c #A3B0B7",
"7	c #656F77",
"8	c #2A343C",
"9	c #181F24",
"0	c #77828A",
"a	c #C7D5DC",
"b	c #68747B",
"c	c #343A41",
"d	c #353C43",
"e	c #080A0B",
"f	c #7A868D",
"g	c #1C242B",
"h	c #080A0D",
"i	c #373E46",
"j	c #29323A",
"k	c #101215",
"l	c #373F47",
"m	c #1F242A",
"n	c #1F252A",
"o	c #363C43",
"p	c #39424A",
"q	c #090B0D",
"r	c #0A0C0F",
"s	c #38434C",
"t	c #3C444D",
"u	c #2E353C",
"v	c #2E363E",
"w	c #3B434D",
"x	c #414A54",
"y	c #31383F",
"z	c #0A0C10",
"A	c #181F23",
"B	c #313840",
"C	c #414954",
"D	c #333A41",
"E	c #404953",
"F	c #434E59",
"G	c #262E33",
"H	c #13161B",
"I	c #272E34",
"J	c #404852",
"K	c #383E47",
"L	c #424B54",
"M	c #49535E",
"N	c #4D5762",
"O	c #383E46",
".+@@#+@@@+.$#.+##@##.@++",
"%%%%%%%%%%%%%%%%%%%%%%%%",
"&&&&&&&&&&&&&&&&&&&&&&&&",
"&&&&&&&&&&&&&&&&&&&&&&&&",
"&&&&&&&&&&&&&&&&&&&&&&&&",
"&&&&&&&&*=-;;-=*&&&&&&&&",
"&&&&&&&>,')!!)~,>&&&&&&&",
"&&&&&&>{]^/((/^_{>&&&&&&",
"&&&&&*,]:<[}}[<:_|1&&&&&",
"&&&&&='^<}2332}<^~4&&&&&",
"&&&&&5)/[678876[/9-&&&&&",
"&&&&&;!(}0abba0}(!;&&&&&",
"ccccde!(}3faaf3}(ghdcccc",
"cccci5)/[2jffj2[/9kicccc",
"cccclm~^<}2332}<^~nlcccc",
"ccccopq_:<[}}[<:_rsocccc",
"ccccctu{_^/((/^_{vwccccc",
"ccccccxyz~9!!A~zBCDccccc",
"cccccccEFGH,,HIFJccccccc",
"ccccccccKLMNNMLOcccccccc",
"cccccccccccccccccccccccc",
"cccccccccccccccccccccccc",
"cccccccccccccccccccccccc",
"cccccccccccccccccccccccc"};
