/* XPM */
static char * hide_pressed_xpm[] = {
"24 24 76 1",
" 	c None",
".	c #1C1D1B",
"+	c #1C1C1B",
"@	c #1B1C1B",
"#	c #1B1C1A",
"$	c #1C1C1A",
"%	c #4F5863",
"&	c #393F47",
"*	c #353A41",
"=	c #1E2227",
"-	c #0F1115",
";	c #080A0C",
">	c #282D32",
",	c #080B0E",
"'	c #0B0F11",
")	c #0F1416",
"!	c #121619",
"~	c #07090C",
"{	c #101417",
"]	c #13171A",
"^	c #14181A",
"/	c #101517",
"(	c #13181A",
"_	c #15181A",
":	c #080C0E",
"<	c #343A42",
"[	c #16191A",
"}	c #17191A",
"|	c #1F2227",
"1	c #0F1215",
"2	c #244156",
"3	c #1A2127",
"4	c #18191A",
"5	c #3D89C7",
"6	c #3C85C0",
"7	c #1C2327",
"8	c #3D89C6",
"9	c #343A41",
"0	c #353C43",
"a	c #080A0B",
"b	c #1D2A34",
"c	c #3E8ECE",
"d	c #12161A",
"e	c #080A0D",
"f	c #373E46",
"g	c #101215",
"h	c #373F47",
"i	c #1F242A",
"j	c #1F252A",
"k	c #363C43",
"l	c #39424A",
"m	c #080B0D",
"n	c #090C0F",
"o	c #38434C",
"p	c #3C444D",
"q	c #2E353C",
"r	c #2E363E",
"s	c #3B434D",
"t	c #414A54",
"u	c #31383F",
"v	c #090C10",
"w	c #313840",
"x	c #414954",
"y	c #333A41",
"z	c #404953",
"A	c #434E59",
"B	c #262E33",
"C	c #13161B",
"D	c #090B0E",
"E	c #272E34",
"F	c #404852",
"G	c #383E47",
"H	c #424B54",
"I	c #49535E",
"J	c #4D5762",
"K	c #383E46",
".+@@#+@@@+.$#.+##@##.@++",
"%%%%%%%%%%%%%%%%%%%%%%%%",
"&&&&&&&&&&&&&&&&&&&&&&&&",
"&&&&&&&&&&&&&&&&&&&&&&&&",
"&&&&&&&&&&&&&&&&&&&&&&&&",
"&&&&&&&&*=-;;-=*&&&&&&&&",
"&&&&&&&>,')!!)',>&&&&&&&",
"&&&&&&>~{]^^^^]/~>&&&&&&",
"&&&&&*,{(^____^(/:<&&&&&",
"&&&&&=']^_[}}[_^]'|&&&&&",
"&&&&&1)^_234432_^)-&&&&&",
"&&&&&;!^_567768_^!;&&&&&",
"99990a!^_bc66cb_^de09999",
"9999f1)^_[bccb[_^)gf9999",
"9999hi']^_[bb[_^]'jh9999",
"9999klm/(^____^(/nok9999",
"99999pq~/]^^^^]/~rs99999",
"999999tuv')!!)'vwxy99999",
"9999999zABCDDCEAF9999999",
"99999999GHIJJIHK99999999",
"999999999999999999999999",
"999999999999999999999999",
"999999999999999999999999",
"999999999999999999999999"};
