/* XPM */
static char * maximize_active_xpm[] = {
"24 24 80 1",
" 	c None",
".	c #1C1D1B",
"+	c #1C1C1B",
"@	c #1B1C1B",
"#	c #1B1C1A",
"$	c #1C1C1A",
"%	c #4F5863",
"&	c #393F47",
"*	c #353A41",
"=	c #1E2227",
"-	c #0F1115",
";	c #080A0C",
">	c #282D32",
",	c #090B0E",
"'	c #101518",
")	c #191F24",
"!	c #1D242A",
"~	c #0F1418",
"{	c #080B0D",
"]	c #191F25",
"^	c #20272D",
"/	c #21292F",
"(	c #212930",
"_	c #192025",
":	c #20282E",
"<	c #222A31",
"[	c #242C33",
"}	c #242D34",
"|	c #090C0E",
"1	c #343A42",
"2	c #262F36",
"3	c #273138",
"4	c #1F2227",
"5	c #0F1215",
"6	c #29323A",
"7	c #707B84",
"8	c #181F24",
"9	c #C8D6DD",
"0	c #343A41",
"a	c #353C43",
"b	c #080A0B",
"c	c #6D7A81",
"d	c #717D85",
"e	c #1C242B",
"f	c #080A0D",
"g	c #373E46",
"h	c #ADB9C1",
"i	c #6E7A82",
"j	c #2A343C",
"k	c #101215",
"l	c #373F47",
"m	c #1F242A",
"n	c #1F252A",
"o	c #363C43",
"p	c #39424A",
"q	c #090B0D",
"r	c #0A0C0F",
"s	c #38434C",
"t	c #3C444D",
"u	c #2E353C",
"v	c #2E363E",
"w	c #3B434D",
"x	c #414A54",
"y	c #31383F",
"z	c #0A0C10",
"A	c #181F23",
"B	c #313840",
"C	c #414954",
"D	c #333A41",
"E	c #404953",
"F	c #434E59",
"G	c #262E33",
"H	c #13161B",
"I	c #272E34",
"J	c #404852",
"K	c #383E47",
"L	c #424B54",
"M	c #49535E",
"N	c #4D5762",
"O	c #383E46",
".+@@#+@@@+.$#.+##@##.@++",
"%%%%%%%%%%%%%%%%%%%%%%%%",
"&&&&&&&&&&&&&&&&&&&&&&&&",
"&&&&&&&&&&&&&&&&&&&&&&&&",
"&&&&&&&&&&&&&&&&&&&&&&&&",
"&&&&&&&&*=-;;-=*&&&&&&&&",
"&&&&&&&>,')!!)~,>&&&&&&&",
"&&&&&&>{]^/((/^_{>&&&&&&",
"&&&&&*,]:<[}}[<:_|1&&&&&",
"&&&&&='^<}2332}<^~4&&&&&",
"&&&&&5)/[267762[/8-&&&&&",
"&&&&&;!(}379973}(!;&&&&&",
"0000ab!(}c9dd9c}(efa0000",
"0000g5)/[hijjih[/8kg0000",
"0000lm~^<}2332}<^~nl0000",
"0000opq_:<[}}[<:_rso0000",
"00000tu{_^/((/^_{vw00000",
"000000xyz~8!!A~zBCD00000",
"0000000EFGH,,HIFJ0000000",
"00000000KLMNNMLO00000000",
"000000000000000000000000",
"000000000000000000000000",
"000000000000000000000000",
"000000000000000000000000"};
