/* XPM */
static char * maximize_prelight_xpm[] = {
"24 24 80 1",
" 	c None",
".	c #1C1D1B",
"+	c #1C1C1B",
"@	c #1B1C1B",
"#	c #1B1C1A",
"$	c #1C1C1A",
"%	c #4F5863",
"&	c #393F47",
"*	c #353A41",
"=	c #1E2227",
"-	c #0F1216",
";	c #090D11",
">	c #0F1317",
",	c #282D32",
"'	c #0A0F11",
")	c #101920",
"!	c #19242E",
"~	c #1C2A35",
"{	c #0F1820",
"]	c #090F13",
"^	c #19242F",
"/	c #1F2F3A",
"(	c #203240",
"_	c #203342",
":	c #19252F",
"<	c #1F313D",
"[	c #213444",
"}	c #22384A",
"|	c #223A4C",
"1	c #0A0F12",
"2	c #343A42",
"3	c #233F53",
"4	c #244257",
"5	c #1F2227",
"6	c #0F1316",
"7	c #25445C",
"8	c #336E9C",
"9	c #18242E",
"0	c #090E11",
"a	c #449EE7",
"b	c #090E10",
"c	c #343A41",
"d	c #353C43",
"e	c #326A96",
"f	c #3471A1",
"g	c #1B2A36",
"h	c #373E46",
"i	c #3E8ECE",
"j	c #336B99",
"k	c #254761",
"l	c #373F47",
"m	c #1F242A",
"n	c #1F252A",
"o	c #363C43",
"p	c #39424A",
"q	c #0B0F13",
"r	c #38434C",
"s	c #3C444D",
"t	c #2E353C",
"u	c #2E363E",
"v	c #3B434D",
"w	c #414A54",
"x	c #31383F",
"y	c #0B1013",
"z	c #18242D",
"A	c #313840",
"B	c #414954",
"C	c #333A41",
"D	c #404953",
"E	c #434E59",
"F	c #262E33",
"G	c #13171D",
"H	c #0A0E13",
"I	c #272E34",
"J	c #404852",
"K	c #383E47",
"L	c #424B54",
"M	c #49535E",
"N	c #4D5762",
"O	c #383E46",
".+@@#+@@@+.$#.+##@##.@++",
"%%%%%%%%%%%%%%%%%%%%%%%%",
"&&&&&&&&&&&&&&&&&&&&&&&&",
"&&&&&&&&&&&&&&&&&&&&&&&&",
"&&&&&&&&&&&&&&&&&&&&&&&&",
"&&&&&&&&*=-;;>=*&&&&&&&&",
"&&&&&&&,')!~~!{',&&&&&&&",
"&&&&&&,]^/(__(/:],&&&&&&",
"&&&&&*'^<[}||}[<:12&&&&&",
"&&&&&=)/[|3443|[/{5&&&&&",
"&&&&&6!(}378873}(9>&&&&&",
"&&&&&0~_|48aa84|_~b&&&&&",
"ccccdb~_|eaffae|_gbdcccc",
"cccch-!(}ijkkji}(9>hcccc",
"cccclm{/[|3443|[/{nlcccc",
"ccccop':<[}||}[<:qrocccc",
"cccccst]:/(__(/:]uvccccc",
"ccccccwxy{9~~z{qABCccccc",
"cccccccDEFGHHGIEJccccccc",
"ccccccccKLMNNMLOcccccccc",
"cccccccccccccccccccccccc",
"cccccccccccccccccccccccc",
"cccccccccccccccccccccccc",
"cccccccccccccccccccccccc"};
