/* XPM */
static char * maximize_inactive_xpm[] = {
"24 24 81 1",
" 	c None",
".	c #1C1D1B",
"+	c #1C1C1B",
"@	c #1B1C1B",
"#	c #1B1C1A",
"$	c #1C1C1A",
"%	c #4F5863",
"&	c #393F47",
"*	c #353A41",
"=	c #1E2227",
"-	c #0F1115",
";	c #080A0C",
">	c #282D32",
",	c #090B0E",
"'	c #101518",
")	c #191F24",
"!	c #1D242A",
"~	c #0F1418",
"{	c #080B0D",
"]	c #191F25",
"^	c #20272D",
"/	c #21292F",
"(	c #212930",
"_	c #192025",
":	c #20282E",
"<	c #222A31",
"[	c #242C33",
"}	c #242D34",
"|	c #090C0E",
"1	c #343A42",
"2	c #262F36",
"3	c #273138",
"4	c #1F2227",
"5	c #0F1215",
"6	c #29323A",
"7	c #3F4951",
"8	c #181F24",
"9	c #5C676E",
"0	c #343A41",
"a	c #353C43",
"b	c #080A0B",
"c	c #3C474E",
"d	c #59656C",
"e	c #414C54",
"f	c #1C242B",
"g	c #080A0D",
"h	c #373E46",
"i	c #4E5860",
"j	c #3E484F",
"k	c #2A343C",
"l	c #101215",
"m	c #373F47",
"n	c #1F242A",
"o	c #1F252A",
"p	c #363C43",
"q	c #39424A",
"r	c #090B0D",
"s	c #0A0C0F",
"t	c #38434C",
"u	c #3C444D",
"v	c #2E353C",
"w	c #2E363E",
"x	c #3B434D",
"y	c #414A54",
"z	c #31383F",
"A	c #0A0C10",
"B	c #181F23",
"C	c #313840",
"D	c #414954",
"E	c #333A41",
"F	c #404953",
"G	c #434E59",
"H	c #262E33",
"I	c #13161B",
"J	c #272E34",
"K	c #404852",
"L	c #383E47",
"M	c #424B54",
"N	c #49535E",
"O	c #4D5762",
"P	c #383E46",
".+@@#+@@@+.$#.+##@##.@++",
"%%%%%%%%%%%%%%%%%%%%%%%%",
"&&&&&&&&&&&&&&&&&&&&&&&&",
"&&&&&&&&&&&&&&&&&&&&&&&&",
"&&&&&&&&&&&&&&&&&&&&&&&&",
"&&&&&&&&*=-;;-=*&&&&&&&&",
"&&&&&&&>,')!!)~,>&&&&&&&",
"&&&&&&>{]^/((/^_{>&&&&&&",
"&&&&&*,]:<[}}[<:_|1&&&&&",
"&&&&&='^<}2332}<^~4&&&&&",
"&&&&&5)/[267762[/8-&&&&&",
"&&&&&;!(}379973}(!;&&&&&",
"0000ab!(}cdeedc}(fga0000",
"0000h5)/[ijkkji[/8lh0000",
"0000mn~^<}2332}<^~om0000",
"0000pqr_:<[}}[<:_stp0000",
"00000uv{_^/((/^_{wx00000",
"000000yzA~8!!B~ACDE00000",
"0000000FGHI,,IJGK0000000",
"00000000LMNOONMP00000000",
"000000000000000000000000",
"000000000000000000000000",
"000000000000000000000000",
"000000000000000000000000"};
