/* XPM */
static char * maximize_pressed_xpm[] = {
"24 24 74 1",
" 	c None",
".	c #1C1D1B",
"+	c #1C1C1B",
"@	c #1B1C1B",
"#	c #1B1C1A",
"$	c #1C1C1A",
"%	c #4F5863",
"&	c #393F47",
"*	c #353A41",
"=	c #1E2227",
"-	c #0F1115",
";	c #080A0C",
">	c #282D32",
",	c #080B0E",
"'	c #0B0F11",
")	c #0F1416",
"!	c #121619",
"~	c #07090C",
"{	c #101417",
"]	c #13171A",
"^	c #14181A",
"/	c #101517",
"(	c #13181A",
"_	c #15181A",
":	c #080C0E",
"<	c #343A42",
"[	c #16191A",
"}	c #17191A",
"|	c #1F2227",
"1	c #0F1215",
"2	c #1C262E",
"3	c #3D8AC8",
"4	c #343A41",
"5	c #353C43",
"6	c #080A0B",
"7	c #1B262E",
"8	c #12161A",
"9	c #080A0D",
"0	c #373E46",
"a	c #3B86C1",
"b	c #3B85C0",
"c	c #101215",
"d	c #373F47",
"e	c #1F242A",
"f	c #264863",
"g	c #1A252D",
"h	c #1F252A",
"i	c #363C43",
"j	c #39424A",
"k	c #080B0D",
"l	c #090C0F",
"m	c #38434C",
"n	c #3C444D",
"o	c #2E353C",
"p	c #2E363E",
"q	c #3B434D",
"r	c #414A54",
"s	c #31383F",
"t	c #090C10",
"u	c #313840",
"v	c #414954",
"w	c #333A41",
"x	c #404953",
"y	c #434E59",
"z	c #262E33",
"A	c #13161B",
"B	c #090B0E",
"C	c #272E34",
"D	c #404852",
"E	c #383E47",
"F	c #424B54",
"G	c #49535E",
"H	c #4D5762",
"I	c #383E46",
".+@@#+@@@+.$#.+##@##.@++",
"%%%%%%%%%%%%%%%%%%%%%%%%",
"&&&&&&&&&&&&&&&&&&&&&&&&",
"&&&&&&&&&&&&&&&&&&&&&&&&",
"&&&&&&&&&&&&&&&&&&&&&&&&",
"&&&&&&&&*=-;;-=*&&&&&&&&",
"&&&&&&&>,')!!)',>&&&&&&&",
"&&&&&&>~{]^^^^]/~>&&&&&&",
"&&&&&*,{(^____^(/:<&&&&&",
"&&&&&=']^_[}}[_^]'|&&&&&",
"&&&&&1)^_[}22}[_^)-&&&&&",
"&&&&&;!^_}2332}_^!;&&&&&",
"444456!^_733337_^8954444",
"444401)^_a3223b_^)c04444",
"4444de']^fg}}gf^]'hd4444",
"4444ijk/(^____^(/lmi4444",
"44444no~/]^^^^]/~pq44444",
"444444rst')!!)'tuvw44444",
"4444444xyzABBACyD4444444",
"44444444EFGHHGFI44444444",
"444444444444444444444444",
"444444444444444444444444",
"444444444444444444444444",
"444444444444444444444444"};
