/* XPM */
static char * menu_active_xpm[] = {
"16 24 11 1",
" 	c None",
".	c #1B1C1A",
"+	c #1C1C1B",
"@	c #1B1C1B",
"#	c #1C1D1B",
"$	c #1C1C1A",
"%	c #4F5863",
"&	c #393F47",
"*	c #EBECEC",
"=	c #343A41",
"-	c #EBEBEC",
".+.+.+.+@@@+#$.#",
"%%%%%%%%%%%%%%%%",
"&&&&&&&&&&&&&&&&",
"&&&&&&&&&&&&&&&&",
"&&&&&&&&&&&&&&&&",
"&&&&&&&&&&&&&&&&",
"&&&&&&&&&&&&&&&&",
"&&&&&&&&&&&&&&&&",
"&&&&&&&&&&&&&&&&",
"&&&&&&&&&&&&&&&&",
"&&&&**&&&**&&&&&",
"&&&&&**&**&&&&&&",
"======---=======",
"=======-========",
"================",
"================",
"================",
"================",
"================",
"================",
"================",
"================",
"================",
"================"};
