/* XPM */
static char * title_4_active_xpm[] = {
"12 24 9 1",
" 	c None",
".	c #1B1C1A",
"+	c #1C1C1B",
"@	c #1B1C1B",
"#	c #1C1D1B",
"$	c #1C1C1A",
"%	c #4F5863",
"&	c #393F47",
"*	c #343A41",
".+.+@@@+#$.#",
"%%%%%%%%%%%%",
"&&&&&&&&&&&&",
"&&&&&&&&&&&&",
"&&&&&&&&&&&&",
"&&&&&&&&&&&&",
"&&&&&&&&&&&&",
"&&&&&&&&&&&&",
"&&&&&&&&&&&&",
"&&&&&&&&&&&&",
"&&&&&&&&&&&&",
"&&&&&&&&&&&&",
"************",
"************",
"************",
"************",
"************",
"************",
"************",
"************",
"************",
"************",
"************",
"************"};
