/* XPM */
static char * top_right_inactive_xpm[] = {
"5 24 14 1",
" 	c None",
".	c #0B0B0B",
"+	c #000000",
"@	c #4F5863",
"#	c #4A525C",
"$	c #252628",
"%	c #353535",
"&	c #393F47",
"*	c #3D444D",
"=	c #474F59",
"-	c #2D2F31",
";	c #434B54",
">	c #050505",
",	c #343A41",
".+   ",
"@#$% ",
"&*=- ",
"&&*;+",
"&&&&>",
"&&&&+",
"&&&&+",
"&&&&+",
"&&&&+",
"&&&&+",
"&&&&+",
"&&&&+",
",,,,+",
",,,,+",
",,,,+",
",,,,+",
",,,,+",
",,,,+",
",,,,+",
",,,,+",
",,,,+",
",,,,+",
",,,,+",
",,,,+"};
