/* XPM */
static char * top_left_active_xpm[] = {
"5 24 14 1",
" 	c None",
".	c #000000",
"+	c #0B0B0B",
"@	c #353535",
"#	c #252628",
"$	c #4A525C",
"%	c #4F5863",
"&	c #2D2F31",
"*	c #474F59",
"=	c #3D444D",
"-	c #393F47",
";	c #434B54",
">	c #050505",
",	c #343A41",
"   .+",
" @#$%",
" &*=-",
".;=--",
">----",
".----",
".----",
".----",
".----",
".----",
".----",
".----",
".,,,,",
".,,,,",
".,,,,",
".,,,,",
".,,,,",
".,,,,",
".,,,,",
".,,,,",
".,,,,",
".,,,,",
".,,,,",
".,,,,"};
